<svg width="16" height="16" viewBox="0 0 16 16" fill="none" xmlns="http://www.w3.org/2000/svg">
<path d="M8.00331 3.95702C5.73189 3.95702 3.89975 5.76053 3.89975 7.99647C3.89975 10.2324 5.73189 12.0359 8.00331 12.0359C10.2747 12.0359 12.1069 10.2324 12.1069 7.99647C12.1069 5.76053 10.2747 3.95702 8.00331 3.95702ZM8.00331 10.6226C6.53546 10.6226 5.33546 9.4449 5.33546 7.99647C5.33546 6.54803 6.53189 5.3703 8.00331 5.3703C9.47474 5.3703 10.6712 6.54803 10.6712 7.99647C10.6712 9.4449 9.47117 10.6226 8.00331 10.6226ZM13.2319 3.79178C13.2319 4.31561 12.8033 4.73397 12.2747 4.73397C11.7426 4.73397 11.3176 4.31209 11.3176 3.79178C11.3176 3.27147 11.7462 2.8496 12.2747 2.8496C12.8033 2.8496 13.2319 3.27147 13.2319 3.79178ZM15.9497 4.74803C15.889 3.48592 15.5962 2.36796 14.6569 1.44686C13.7212 0.525769 12.5855 0.237488 11.3033 0.174207C9.98188 0.100378 6.02117 0.100378 4.69975 0.174207C3.42118 0.233972 2.28546 0.522253 1.34618 1.44335C0.406892 2.36444 0.117606 3.48241 0.0533203 4.74452C-0.0216797 6.0453 -0.0216797 9.94412 0.0533203 11.2449C0.114035 12.507 0.406892 13.625 1.34618 14.5461C2.28546 15.4672 3.4176 15.7554 4.69975 15.8187C6.02117 15.8926 9.98188 15.8926 11.3033 15.8187C12.5855 15.759 13.7212 15.4707 14.6569 14.5461C15.5926 13.625 15.8855 12.507 15.9497 11.2449C16.0247 9.94412 16.0247 6.04881 15.9497 4.74803ZM14.2426 12.6406C13.964 13.3297 13.4247 13.8605 12.7212 14.1383C11.6676 14.5496 9.1676 14.4547 8.00331 14.4547C6.83903 14.4547 4.33546 14.5461 3.28546 14.1383C2.58546 13.864 2.04618 13.3332 1.76403 12.6406C1.34618 11.6035 1.44261 9.14256 1.44261 7.99647C1.44261 6.85037 1.34975 4.38592 1.76403 3.35233C2.0426 2.66327 2.58189 2.13241 3.28546 1.85467C4.33903 1.44335 6.83903 1.53827 8.00331 1.53827C9.1676 1.53827 11.6712 1.44686 12.7212 1.85467C13.4212 2.12889 13.9605 2.65975 14.2426 3.35233C14.6605 4.38944 14.564 6.85037 14.564 7.99647C14.564 9.14256 14.6605 11.607 14.2426 12.6406Z" fill="#040D1C"/>
</svg>
