<svg width="18" height="14" viewBox="0 0 18 14" fill="none" xmlns="http://www.w3.org/2000/svg">
<path d="M18 1.70478C17.326 1.98925 16.611 2.17597 15.879 2.25875C16.6415 1.82334 17.227 1.13386 17.5027 0.312345C16.7778 0.722154 15.9847 1.01089 15.1577 1.16608C14.484 0.482355 13.5243 0.0550537 12.4621 0.0550537C10.4226 0.0550537 8.76909 1.63029 8.76909 3.57314C8.76909 3.84892 8.80179 4.1174 8.86472 4.37496C5.79558 4.22819 3.07448 2.82759 1.25304 0.699053C0.935227 1.21866 0.753117 1.82307 0.753117 2.46774C0.753117 3.68835 1.40513 4.76515 2.39597 5.39608C1.80953 5.37859 1.23599 5.22769 0.723234 4.95599C0.723023 4.97073 0.723023 4.98546 0.723023 5.00027C0.723023 6.70485 1.99596 8.12682 3.68529 8.45003C3.14148 8.59092 2.57107 8.61154 2.01762 8.51031C2.48752 9.90803 3.85137 10.9251 5.46729 10.9536C4.20342 11.8972 2.61105 12.4597 0.880945 12.4597C0.58282 12.4597 0.288914 12.443 0 12.4105C1.63427 13.4087 3.57539 13.9911 5.66086 13.9911C12.4535 13.9911 16.1679 8.63022 16.1679 3.98115C16.1679 3.82855 16.1644 3.67683 16.1573 3.52598C16.8802 3.02807 17.5042 2.41135 18 1.70478Z" fill="#040D1C"/>
</svg>
