<svg width="90" height="24" viewBox="0 0 90 24" fill="none" xmlns="http://www.w3.org/2000/svg">
<path d="M5.732 13.8H4.814V24H0.53V0.199998H4.814V10.774L5.664 10.366L10.662 0.199998H15.49L10.05 10.23L8.452 11.488L10.084 12.78L16.374 24H11.138L5.732 13.8ZM18.1609 0.199998H30.0609V4.144H22.4449V9.992H29.3469V13.936H22.4449V20.056H30.1969V24H18.1609V0.199998ZM47.0842 4.144H41.4402V24H37.1562V4.144H31.5122V0.199998H47.0842V4.144ZM63.8518 4.144H58.2078V24H53.9238V4.144H48.2798V0.199998H63.8518V4.144ZM66.0153 0.199998H70.2993V24H66.0153V0.199998ZM78.9449 13.8H78.0269V24H73.7429V0.199998H78.0269V10.774L78.8769 10.366L83.8749 0.199998H88.7029L83.2629 10.23L81.6649 11.488L83.2969 12.78L89.5869 24H84.3509L78.9449 13.8Z" fill="#3200FF"/>
</svg>
