<svg width="22" height="18" viewBox="0 0 22 18" fill="none" xmlns="http://www.w3.org/2000/svg">
<path d="M4.85521 3.83962C4.62278 3.71446 4.34167 3.72072 4.11504 3.85608C3.88841 3.99145 3.74963 4.23599 3.74963 4.49997V14C3.74963 14.4142 4.08542 14.75 4.49963 14.75C4.91385 14.75 5.24963 14.4142 5.24963 14V5.75563L10.6441 8.66032C10.866 8.77985 11.1332 8.77985 11.3552 8.66032L16.7496 5.75563V14C16.7496 14.4142 17.0854 14.75 17.4996 14.75C17.9138 14.75 18.2496 14.4142 18.2496 14V4.49997C18.2496 4.23599 18.1109 3.99145 17.8842 3.85608C17.6576 3.72072 17.3765 3.71446 17.1441 3.83962L10.9996 7.14815L4.85521 3.83962Z" fill="#96C0FF"/>
<path fill-rule="evenodd" clip-rule="evenodd" d="M16.3102 0.721805C12.7769 0.405883 9.2224 0.405883 5.68906 0.721805L4.17172 0.857473C2.5441 1.003 1.22903 2.24642 0.99264 3.86334C0.494641 7.26965 0.494641 10.7303 0.99264 14.1366C1.22903 15.7535 2.5441 16.9969 4.17172 17.1425L5.68906 17.2781C9.2224 17.5941 12.7769 17.5941 16.3102 17.2781L17.8276 17.1425C19.4552 16.9969 20.7703 15.7535 21.0066 14.1366C21.5046 10.7303 21.5046 7.26965 21.0066 3.86334C20.7703 2.24642 19.4552 1.003 17.8276 0.857473L16.3102 0.721805ZM5.82265 2.21584C9.26711 1.90787 12.7322 1.90787 16.1766 2.21584L17.694 2.35151C18.6301 2.43521 19.3865 3.15036 19.5224 4.08033C19.9994 7.34275 19.9994 10.6572 19.5224 13.9196C19.3865 14.8496 18.6301 15.5647 17.694 15.6484L16.1766 15.7841C12.7322 16.0921 9.26711 16.0921 5.82265 15.7841L4.3053 15.6484C3.36918 15.5647 2.61282 14.8496 2.47686 13.9196C1.9999 10.6572 1.9999 7.34275 2.47686 4.08033C2.61282 3.15036 3.36918 2.43521 4.3053 2.35151L5.82265 2.21584Z" fill="#96C0FF"/>
</svg>
