<svg width="19" height="17" viewBox="0 0 19 17" fill="none" xmlns="http://www.w3.org/2000/svg">
<path fill-rule="evenodd" clip-rule="evenodd" d="M0.0292969 6.03154C0.0292969 3.17219 2.5378 0.970581 5.48224 0.970581C7.00003 0.970581 8.3356 1.68226 9.294 2.60311C10.2524 1.68226 11.588 0.970581 13.1058 0.970581C16.0502 0.970581 18.5587 3.17219 18.5587 6.03154C18.5587 7.99023 17.7234 9.7127 16.5662 11.1687C15.411 12.6221 13.8998 13.8557 12.453 14.8581C11.9003 15.2409 11.3413 15.5941 10.8296 15.8547C10.3491 16.0994 9.79667 16.3235 9.294 16.3235C8.79133 16.3235 8.23888 16.0994 7.75842 15.8547C7.24675 15.5941 6.68767 15.2409 6.13504 14.8581C4.68817 13.8557 3.17704 12.6221 2.02181 11.1687C0.864582 9.7127 0.0292969 7.99023 0.0292969 6.03154ZM5.48224 2.55882C3.28068 2.55882 1.61753 4.17786 1.61753 6.03154C1.61753 7.5176 2.24837 8.90117 3.26516 10.1805C4.28395 11.4623 5.65475 12.5932 7.03949 13.5525C7.56348 13.9155 8.05702 14.2244 8.47919 14.4394C8.93257 14.6703 9.19518 14.7353 9.294 14.7353C9.39283 14.7353 9.65544 14.6703 10.1088 14.4394C10.531 14.2244 11.0245 13.9155 11.5485 13.5525C12.9333 12.5932 14.3041 11.4623 15.3228 10.1805C16.3396 8.90117 16.9705 7.5176 16.9705 6.03154C16.9705 4.17786 15.3073 2.55882 13.1058 2.55882C11.8414 2.55882 10.6607 3.3142 9.92354 4.27297C9.77322 4.46847 9.54061 4.58304 9.294 4.58304C9.04739 4.58304 8.81478 4.46847 8.66446 4.27297C7.92728 3.3142 6.74663 2.55882 5.48224 2.55882Z" fill="#0065FF"/>
</svg>
