<svg width="18" height="18" viewBox="0 0 18 18" fill="none" xmlns="http://www.w3.org/2000/svg">
<path d="M9.75 4.2182C9.75 3.80399 9.41421 3.4682 9 3.4682C8.58579 3.4682 8.25 3.80399 8.25 4.2182V9.2182C8.25 9.47679 8.38321 9.71715 8.6025 9.8542L11.6025 11.7292C11.9538 11.9487 12.4165 11.842 12.636 11.4907C12.8555 11.1394 12.7488 10.6767 12.3975 10.4572L9.75 8.80252V4.2182Z" fill="#96C0FF"/>
<path fill-rule="evenodd" clip-rule="evenodd" d="M9 0.468201C4.16751 0.468201 0.25 4.38571 0.25 9.2182C0.25 14.0507 4.16751 17.9682 9 17.9682C13.8325 17.9682 17.75 14.0507 17.75 9.2182C17.75 4.38571 13.8325 0.468201 9 0.468201ZM1.75 9.2182C1.75 5.21414 4.99594 1.9682 9 1.9682C13.0041 1.9682 16.25 5.21414 16.25 9.2182C16.25 13.2223 13.0041 16.4682 9 16.4682C4.99594 16.4682 1.75 13.2223 1.75 9.2182Z" fill="#96C0FF"/>
</svg>
